<svg xmlns="http://www.w3.org/2000/svg" viewBox="4999.5 5000 90 90" data-guides="{&quot;vertical&quot;:[],&quot;horizontal&quot;:[]}">
    <ellipse cx="5013.671" cy="5057.197" rx="1.53" ry="1.532" transform-origin="5013.67px 5057.2px 0"/>
    <path d="M5013.649 5049.076c-6.258 0-10.17 6.781-7.04 12.206a8.13 8.13 0 0 0 7.04 4.068c6.258 0 10.17-6.781 7.04-12.205a8.13 8.13 0 0 0-7.04-4.069m5.634 9.11-2.69-.475a3 3 0 0 1-.124.488l2.559.895c.069.195-.145.744-.399.96l-2.375-1.373q-.097.18-.225.34l2.105 1.722c-.002.206-.39.648-.702.764l-1.757-2.094q-.163.15-.345.277l1.39 2.34c-.071.194-.588.478-.92.48l-.933-2.564a3 3 0 0 1-.437.152h.01l.514 2.706c-.135.157-.716.247-1.03.135v-2.753a3 3 0 0 1-.582-.007l.026.01-.442 2.721c-.18.101-.757-.015-1.013-.227l.946-2.599a3 3 0 0 1-.551-.22l-1.34 2.395c-.203.033-.706-.272-.874-.558l1.775-2.118a3 3 0 0 1-.41-.381l-2.059 1.776c-.202-.039-.57-.497-.63-.826l2.377-1.373a3 3 0 0 1-.241-.488l-2.53.96c-.178-.105-.367-.663-.311-.992l2.696-.477a3 3 0 0 1-.051-.527l-2.739.036c-.13-.16-.118-.747.047-1.038l2.735.483q.046-.274.141-.532l-2.546-.891c-.069-.194.145-.743.399-.96q1.186.687 2.373 1.372.145-.247.334-.46l-2.106-1.72c.001-.207.39-.649.703-.766l1.783 2.126q.181-.144.385-.26l-1.378-2.313c.073-.194.589-.476.923-.479l.937 2.576a3 3 0 0 1 .497-.126l-.51-2.682c.134-.155.716-.245 1.029-.133v2.777q.28.003.542.055l.436-2.677c.18-.102.757.013 1.013.226l-.947 2.603q.217.087.417.206l1.328-2.373c.203-.035.706.271.874.558l-1.775 2.12q.17.147.317.317l2.073-1.788c.204.036.571.496.632.824l-2.403 1.389q.147.252.246.53l2.551-.967c.18.105.367.661.311.992l-2.736.483q.035.207.038.42 1.35-.015 2.698-.034c.128.158.115.746-.05 1.037m52.31-9.468c-6.257 0-10.168 6.781-7.04 12.206a8.13 8.13 0 0 0 7.04 4.068c6.259 0 10.17-6.78 7.04-12.205a8.13 8.13 0 0 0-7.04-4.069m5.633 9.11-2.69-.475a3 3 0 0 1-.123.488l2.558.895c.07.195-.144.744-.398.96l-2.375-1.373q-.1.18-.227.34l2.104 1.72c-.002.208-.389.65-.7.766l-1.758-2.094a3 3 0 0 1-.345.277l1.39 2.34c-.072.193-.588.477-.921.48l-.933-2.563q-.21.093-.436.15h.01l.514 2.708c-.133.157-.715.246-1.028.134v-2.754q-.293.032-.582-.006l.026.011-.443 2.72c-.179.102-.755-.014-1.011-.227l.944-2.6a3 3 0 0 1-.55-.217l-1.339 2.394c-.203.032-.705-.273-.875-.56l1.774-2.117a3 3 0 0 1-.41-.383l-2.058 1.778c-.204-.039-.572-.497-.633-.826l2.377-1.372a3 3 0 0 1-.239-.49l-2.531.961c-.178-.105-.368-.662-.31-.992l2.696-.475a3 3 0 0 1-.05-.529l-2.74.036c-.131-.158-.119-.747.045-1.038l2.736.484a3 3 0 0 1 .142-.534l-2.546-.889c-.068-.195.145-.744.398-.96l2.375 1.372q.142-.247.334-.46l-2.106-1.722c.001-.206.388-.648.701-.765l1.782 2.126q.183-.144.385-.26l-1.376-2.314c.073-.191.588-.475.92-.479l.938 2.577a3 3 0 0 1 .497-.126l-.51-2.68c.134-.157.716-.246 1.03-.134v2.776q.276.003.543.055l.435-2.676c.18-.103.756.012 1.012.225l-.947 2.602q.219.09.418.206l1.328-2.372c.204-.034.706.272.875.56l-1.776 2.12q.172.146.318.318l2.075-1.79c.203.036.571.496.63.825l-2.403 1.387q.148.252.244.53l2.553-.967c.177.105.366.663.31.991l-2.737.484q.035.206.038.422l2.698-.036c.132.158.119.747-.047 1.037"/>
    <ellipse cx="5071.614" cy="5056.839" rx="1.529" ry="1.53" transform-origin="5071.61px 5056.84px 0"/>
    <path d="m5087.5 5051.991-.289-.023c0-.47-.012-1.812-.56-1.812 0 0-.659-4.379-1.97-4.648-.478-1.073-5.961-6.415-16.454-6.415 0 0-.894.389-1.64.36 0 0-9.12-7.37-15.767-10.205 0 0 .23-.43.683-.598-2.502-.948-5.04-1.564-7.423-1.564-7.241 0-16.155.35-21.976.842l-2.215-3.257c-.15-.084-.485.102-.366.281.096.144 1.435 2.222 1.956 3.03-2.44.218-4.26.463-5.056.714 0 0-.566.613-.595 1.18 0 0 .835.685.953 1.043 0 0-5.395 5.31-6.498 6.982h-1.223c-.999.612-2.533 3.283-4.143 4.028 0 0-.604-.216-.97.15-.364.365-.17.739.12 1.029 0 0-.327.76.015 1.14.194-.327.335-.548.335-.548 1.632-2.584 3.119-1.894 3.417-1.78.266.103-.298.694-.298.694-.52.489-2.56 3.647-2.56 3.647-.604 1.096-2.22 1.186-2.22 1.186-.582 0-.924.791-.924 2.939v1.998s-.373-.043-.328.418c.045.463.73 5.669 3.204 5.669-.64-2.908 1.491-9.994 8.853-9.994 7.378 0 9.598 6.517 8.854 11.381 0 0 8.971-.297 20.06-.297s20.506.297 20.506.297c-1.133-3.393.06-11.754 8.793-11.754 7.948 0 9.537 8.75 8.256 11.278 0 0 6.797-1.192 7.215-1.612 0 0 .387-.805.208-1.044-.179-.24-.895-.298-.895-.298s.942-.089.942-2.505l-.59-.68.59-.112zm-69.423-5.436c-4.85-2.507-10.596-.24-10.596-.24s5.857-3.095 11.237-.12 5.276 5.968 5.276 5.968-1.065-3.103-5.917-5.608m11.521-9.22c-.06.239-.656.3-.864.3s-9.687-.268-9.926-.3c-.238-.029.12-.745.24-.894.119-.15 4.172-5.61 8.643-5.967 0 0 2.854-.445 2.742.446-.001 0-.776 6.176-.835 6.416m6.747 6.832h-5.09a.347.347 0 0 1 0-.694h5.09a.347.347 0 0 1 0 .694m21.39-5.627c.344-.284.567-.613.567-.877 0-.582-1.24-1.85-2.4-1.85s-2.1.297-2.1 1.67c0 .436.123.754.315.998-8.348-.216-20.942-.937-20.942-.937v-7.786s10.374.15 15.29 1.162c4.918 1.015 12.61 7.49 12.61 7.49-.51.098-1.715.136-3.34.13m16.096 6.73c-5.215-1.222-10.13 2.698-10.13 2.698s3.84-4.368 10.04-3.283c6.2 1.084 8.362 6.235 8.362 6.235s-3.055-4.426-8.272-5.65m10.944 2.845c-.42.315-1.536-.465-2.496-1.744-.958-1.279-1.398-2.57-.979-2.884.42-.315 1.537.465 2.495 1.745s1.4 2.57.98 2.883"/>
</svg>
